<?xml version="1.0" encoding="UTF-8"?>
<svg id="Layer_1" data-name="Layer 1" xmlns="http://www.w3.org/2000/svg" viewBox="0 0 970.21 218.81">
  <defs>
    <style>
      .cls-1 {
        fill: #284e3d;
      }

      .cls-2 {
        fill: #dcaa2d;
      }

      .cls-3 {
        fill: #323133;
      }
    </style>
  </defs>
  <path class="cls-2" d="M218.77,218.76H0V0h218.77v218.76ZM9.63,209.14h199.51V9.63H9.63v199.51Z"/>
  <g>
    <path class="cls-1" d="M133.86,59.02c2.45-.31,9.15-.87,10.39,1.7.25,6.14-2.85,9.67-2.17,16.44,1.64,16.23,17.17,15.68,27.62,21.4,10.23,5.59,3.72,11.2.91,19.55-4,11.88-5.69,22.58-2.67,34.96,2.13,8.77,10.02,20.69,5.68,29.48-6.25,12.64-23.88-2.64-29.69-8.57-12.53-12.78-19.94-27.18-21.07-45.31-.49-7.8,1.44-14.13-.3-22.04-2.03-9.22-9.15-16.38-12.24-24.99-3.63-10.1-1.08-11.74,7.38-16.44,4.45-2.47,11.15-5.53,16.17-6.17ZM158.21,110.99c-6.93-1.76-13.82-3.76-21.09-3.1l.61,6.82c6.41-.69,12.37,1.59,18.59,2.46l1.89-6.18ZM154.49,122.15c-5.81-1.04-11.39-2.47-17.38-1.87v6.83c5.55-.52,10.76.65,16.11,1.84l1.27-6.81ZM152.62,141.38c-.27-1.7.68-6.18-.6-7.15-1.35-1.02-13.53-2.18-14.28-1.53l1.27,6.79c4.69-.45,9.09,1.09,13.62,1.89ZM153.86,154.41l-1.22-7.15-11.8-2.15c-.57.53,1.83,6.51,3.1,7.13l9.92,2.17Z"/>
    <path class="cls-1" d="M100.32,65.5c-.81.75-2.88,1.42-4.1,2.42-10.57,8.65-3.29,19.56,0,29.72-1.23,15.9-6.75,28.2-17.11,40.03-5.86,6.69-26.19,27.42-33.55,13.06-4.36-8.5,3.71-21.01,5.75-29.69,2.59-11.07,1.29-21.04-1.99-31.77-1.05-3.43-6.16-14.03-5.78-16.29,1.17-7.11,17.57-9.55,23.26-12.77,7.58-4.29,11.24-12.16,10.08-20.84-.48-3.57-5.64-11.07,1.02-12.11,7.88-1.23,17.54,2.78,24.27,6.68,7.58,4.4,9.83,5.43,7.05,14.71-.85,2.84-7.01,15.1-8.89,16.85ZM81.89,75.62c-7.11.81-14.48.97-21.09,4.02l2.84,5.85c5.66-1.94,11.65-2.85,17.64-3.05l.61-6.83ZM81.9,88.64c-6.02-.44-11.58.42-17.38,1.87l1.25,6.82c5.19-1.57,10.66-2.59,16.13-2.48v-6.21ZM81.27,101.06c-5.07-.37-9.91.31-14.86,1.27l-.03,7.41,13.56-2.56,1.32-6.12ZM78.79,113.47c-4.2-.31-8.26,1-12.27,1.99l-1.37,7.31,10.51-2.83,3.14-6.47Z"/>
    <path class="cls-1" d="M102.37,72.52c-1.75,15.5,13.68,25.89,14.3,40.61.21,5.02-.94,10.24-.67,15.57,1.21,23.78,12.92,41.88,30.76,56.73l8.98,6.22c-6.75.83-13.13-4.16-18-8.36-14.18-12.21-24.43-28.2-25.97-47.24-1.17-14.47,2.37-20.96-4.72-34.99-3.7-7.32-16.59-23.5-4.67-28.52Z"/>
    <path class="cls-1" d="M63.9,159.99c18.56-12.75,34.23-30.46,38.15-53.35,8.1,12.16-5.18,28.66-13.32,37.55-6.04,6.6-15.49,15.88-24.83,15.8Z"/>
    <path class="cls-1" d="M110.44,61.34c2.69-4.42,5.33-9.46,6.14-14.64.25-1.63-.13-3.37.06-4.91.26-2.02,3.09.48,3.74,1.24,2.45,2.88.7,11.88-1.9,14.25-.6.54-7.66,4.37-8.03,4.06Z"/>
  </g>
  <g>
    <path class="cls-3" d="M266.03,91.45v-15.25h45.9v15.25h-45.9ZM277.61,149.07v-81.07c0-4.52.99-8.55,2.97-12.07,1.98-3.53,4.71-6.31,8.19-8.33,3.48-2.02,7.53-3.04,12.15-3.04,3.2,0,6.17.54,8.9,1.62,2.73,1.08,5.04,2.57,6.92,4.45l-5.37,13.13c-1.23-1.03-2.52-1.84-3.88-2.4-1.37-.56-2.66-.85-3.88-.85-1.88,0-3.46.31-4.73.92-1.27.61-2.21,1.53-2.82,2.75-.61,1.23-.92,2.69-.92,4.38v80.5h-17.51Z"/>
    <path class="cls-3" d="M357.55,150.48c-7.44,0-14.08-1.67-19.91-5.01-5.84-3.34-10.45-7.93-13.84-13.77-3.39-5.83-5.08-12.47-5.08-19.91s1.7-14.08,5.08-19.91c3.39-5.84,8-10.43,13.84-13.77,5.84-3.34,12.48-5.01,19.91-5.01s13.93,1.67,19.77,5.01c5.84,3.34,10.43,7.93,13.77,13.77,3.34,5.84,5.01,12.48,5.01,19.91s-1.67,14.08-5.01,19.91c-3.34,5.84-7.93,10.43-13.77,13.77-5.84,3.34-12.43,5.01-19.77,5.01ZM357.55,135.09c4.05,0,7.65-1.03,10.8-3.11,3.15-2.07,5.65-4.85,7.49-8.34,1.83-3.48,2.7-7.44,2.61-11.86.09-4.52-.78-8.52-2.61-12.01-1.84-3.48-4.33-6.24-7.49-8.26-3.16-2.02-6.76-3.04-10.8-3.04s-7.7,1.01-10.95,3.04c-3.25,2.03-5.77,4.8-7.56,8.33-1.79,3.53-2.68,7.51-2.68,11.94s.89,8.38,2.68,11.86c1.79,3.48,4.31,6.26,7.56,8.34s6.9,3.11,10.95,3.11Z"/>
    <path class="cls-3" d="M445.68,150.48c-7.44,0-14.08-1.67-19.91-5.01-5.84-3.34-10.45-7.93-13.84-13.77-3.39-5.83-5.08-12.47-5.08-19.91s1.7-14.08,5.08-19.91c3.39-5.84,8-10.43,13.84-13.77,5.84-3.34,12.48-5.01,19.91-5.01s13.93,1.67,19.77,5.01c5.84,3.34,10.43,7.93,13.77,13.77,3.34,5.84,5.01,12.48,5.01,19.91s-1.67,14.08-5.01,19.91c-3.34,5.84-7.93,10.43-13.77,13.77-5.84,3.34-12.43,5.01-19.77,5.01ZM445.68,135.09c4.05,0,7.65-1.03,10.8-3.11,3.15-2.07,5.65-4.85,7.49-8.34,1.83-3.48,2.7-7.44,2.61-11.86.09-4.52-.78-8.52-2.61-12.01-1.84-3.48-4.33-6.24-7.49-8.26-3.16-2.02-6.76-3.04-10.8-3.04s-7.7,1.01-10.95,3.04c-3.25,2.03-5.77,4.8-7.56,8.33-1.79,3.53-2.68,7.51-2.68,11.94s.89,8.38,2.68,11.86c1.79,3.48,4.31,6.26,7.56,8.34s6.9,3.11,10.95,3.11Z"/>
    <path class="cls-3" d="M493.13,90.74v-16.1h48.3v16.1h-48.3ZM507.82,149.07V55.71h17.37v93.35h-17.37Z"/>
    <path class="cls-3" d="M546.37,91.45v-15.25h45.9v15.25h-45.9ZM557.96,149.07v-81.07c0-4.52.99-8.55,2.97-12.07,1.98-3.53,4.71-6.31,8.19-8.33,3.48-2.02,7.53-3.04,12.15-3.04,3.2,0,6.17.54,8.9,1.62,2.73,1.08,5.04,2.57,6.92,4.45l-5.37,13.13c-1.23-1.03-2.52-1.84-3.88-2.4-1.37-.56-2.66-.85-3.88-.85-1.88,0-3.46.31-4.73.92-1.27.61-2.21,1.53-2.82,2.75-.61,1.23-.92,2.69-.92,4.38v80.5h-17.51ZM617.13,58.82c-3.48,0-6.19-.87-8.12-2.61-1.93-1.74-2.9-4.21-2.9-7.41,0-3.01.99-5.46,2.97-7.35s4.66-2.82,8.05-2.82c3.58,0,6.33.87,8.26,2.61,1.93,1.75,2.9,4.26,2.9,7.56,0,2.92-.99,5.32-2.97,7.2-1.98,1.89-4.71,2.83-8.19,2.83ZM608.66,149.07v-74.43h17.37v74.43h-17.37Z"/>
    <path class="cls-3" d="M641.42,90.74v-16.1h48.3v16.1h-48.3ZM656.11,149.07V55.71h17.37v93.35h-17.37Z"/>
    <path class="cls-3" d="M730.68,150.48c-6.59,0-12.5-1.11-17.73-3.32-5.23-2.21-9.49-5.39-12.78-9.54l11.3-9.74c2.82,3.2,5.98,5.51,9.46,6.92,3.48,1.41,7.15,2.12,11.02,2.12,1.6,0,3.04-.19,4.31-.56s2.38-.94,3.32-1.7c.94-.75,1.67-1.62,2.19-2.61.52-.99.78-2.09.78-3.32,0-2.26-.85-4.05-2.54-5.37-.94-.66-2.43-1.36-4.45-2.12-2.03-.75-4.64-1.5-7.84-2.26-5.08-1.32-9.32-2.85-12.71-4.59-3.39-1.74-6.03-3.69-7.91-5.86-1.6-1.79-2.8-3.81-3.6-6.07-.8-2.26-1.2-4.71-1.2-7.35,0-3.29.73-6.28,2.19-8.97,1.46-2.69,3.46-5.01,6-6.99,2.54-1.98,5.51-3.48,8.9-4.52,3.39-1.03,6.92-1.55,10.59-1.55s7.41.47,10.95,1.41c3.53.94,6.83,2.28,9.89,4.03,3.06,1.74,5.67,3.84,7.84,6.28l-9.6,10.59c-1.79-1.7-3.74-3.2-5.86-4.52-2.12-1.32-4.26-2.38-6.43-3.18-2.17-.8-4.19-1.2-6.07-1.2s-3.39.17-4.8.5c-1.41.33-2.59.82-3.53,1.48-.94.66-1.67,1.48-2.19,2.47-.52.99-.78,2.14-.78,3.46.09,1.13.4,2.19.92,3.18.52.99,1.25,1.81,2.19,2.47,1.04.66,2.59,1.41,4.66,2.26,2.07.85,4.75,1.65,8.05,2.4,4.61,1.23,8.47,2.59,11.58,4.1,3.11,1.51,5.55,3.25,7.35,5.23,1.79,1.7,3.06,3.67,3.81,5.93s1.13,4.75,1.13,7.48c0,4.43-1.25,8.38-3.74,11.86-2.5,3.48-5.89,6.21-10.17,8.19-4.29,1.98-9.11,2.97-14.48,2.97Z"/>
    <path class="cls-3" d="M780.96,150.62c-3.39,0-6-.99-7.84-2.97-1.84-1.98-2.75-4.75-2.75-8.33,0-3.29.97-6,2.9-8.12,1.93-2.12,4.5-3.18,7.7-3.18,3.39,0,6,.97,7.84,2.9,1.84,1.93,2.75,4.73,2.75,8.4,0,3.3-.97,6-2.9,8.12-1.93,2.12-4.5,3.18-7.7,3.18Z"/>
    <path class="cls-3" d="M807.94,180.14v-105.5h17.09l.28,16.95-2.97-1.27c.57-2.92,2.17-5.67,4.8-8.26,2.64-2.59,5.86-4.68,9.67-6.28,3.81-1.6,7.79-2.4,11.93-2.4,6.59,0,12.45,1.65,17.58,4.94,5.13,3.3,9.18,7.82,12.15,13.56,2.96,5.74,4.45,12.38,4.45,19.91s-1.48,14.05-4.45,19.84c-2.97,5.79-7.02,10.36-12.15,13.7-5.13,3.34-10.9,5.01-17.3,5.01-4.33,0-8.5-.85-12.5-2.54-4-1.69-7.39-3.9-10.17-6.64-2.78-2.73-4.5-5.6-5.15-8.61l4.24-1.98v49.57h-17.51ZM845.5,134.94c3.95,0,7.48-.99,10.59-2.96,3.11-1.98,5.53-4.71,7.27-8.19,1.74-3.48,2.61-7.49,2.61-12.01s-.85-8.5-2.54-11.94c-1.7-3.43-4.1-6.14-7.2-8.12s-6.69-2.97-10.73-2.97-7.75.97-10.8,2.9c-3.06,1.93-5.49,4.64-7.27,8.12-1.79,3.48-2.68,7.48-2.68,12.01s.89,8.52,2.68,12.01c1.79,3.48,4.21,6.21,7.27,8.19,3.06,1.98,6.66,2.96,10.8,2.96Z"/>
    <path class="cls-3" d="M898.47,149.07V44.56h17.37v104.51h-17.37ZM914.71,126.33l-3.39-16.24,35.31-35.45h23.16l-55.08,51.69ZM948.75,149.07l-27.4-33.19,12.29-10.45,36.58,43.64h-21.47Z"/>
  </g>
</svg>