<?xml version="1.0" encoding="UTF-8"?>
<svg id="Layer_1" data-name="Layer 1" xmlns="http://www.w3.org/2000/svg" viewBox="0 0 532.77 87.29">
  <defs>
    <style>
      .cls-1 {
        fill: #32554d;
      }
    </style>
  </defs>
  <path class="cls-1" d="M27.64,4.54C-6.82,8.63-9.78,68.88,22.86,79.12c26.29,8.24,46.05-10.55,46.06-36.56.01-25.39-15.46-41.08-41.28-38.02ZM39.47,77.81C8.14,84.25,4.16,34.56,16.79,15.77c7.32-10.91,23.61-12.41,32.86-3.04,14.02,14.2,13.12,60.3-10.18,65.08Z"/>
  <path class="cls-1" d="M391.58,81.2l-7.31,1.84c-3.29-1.04-6.55-2.69-8.81-5.39-.39-.45-1.74-2-1.64-2.43,18.61-13.2,20.1-49.15,2.63-63.61-11.42-9.43-31.47-10.21-43.19-.97-19.08,15.04-18.3,53.05,3.45,65.67,9.42,5.46,19.71,5.1,30.05,2.95,1.32,1.68,2.76,3.47,4.41,4.83,4.92,4.07,9.91,3.79,15.72,1.78,1.04-.36,4.91-2.08,5.08-3.06l-.39-1.61ZM341.43,73.99c-1.75-1.5-2.71-2.38-2.05-4.91.11-.42,2.09-3.68,2.44-4.04.75-.74,4.29-2.45,5.34-2.58,7.33-.92,13.69,7.71,17.04,13.22-6.35,3.53-17.09,3.18-22.77-1.69ZM370.04,71.05c-6.57-11.64-23.16-19.59-31.93-5.64-.92,1.91-.52,5.51-2.78,1.72-7.4-12.46-7.36-34.1-1.21-46.99,9.16-19.22,32.31-17.6,40.55,1.41,5.35,12.36,5.25,31.14.12,43.58-.5,1.2-2.91,6.97-4.75,5.92Z"/>
  <path class="cls-1" d="M122.77,7.53c-1.18-.43-5.5-1.69-6.47-1.69h-37.2v1.92c2.9-.27,5.98.1,7.41,2.91l.25,62.59c-.86,4.68-5.74,2.87-7.19,3.85-.99.66-.23,2.17.25,2.17h24.72v-2.4c-2.65.15-6.97.3-7.95-2.85-.11-.35-.69-3.45-.69-3.63v-22.8c15.27-.7,37.23,1.17,38.42-19.42.54-9.34-2.23-17.3-11.55-20.65ZM117.66,41.76c-4.44,2.4-15.1,3.57-20.1,2.98-.7-.08-1.24-.05-1.66-.74V8.72c.55-.06,1.02-.31,1.58-.31,6.54-.05,16.06-.42,21.43,3.46,8.15,5.9,7.92,24.91-1.25,29.89Z"/>
  <path class="cls-1" d="M166.46,5.84h-24.96v1.92c6.17-.47,7.77,2.3,8.18,7.9.98,13.54-2.97,42.84,3.15,53.49,8.84,15.36,39.38,15.66,48.4.03,6.46-11.2,2.76-34.81,3.61-48.23.44-6.95,1.13-13.44,9.64-13.4l-.26-1.7h-22.32v1.92c3.17-.46,7.89,1.13,8.61,4.6,2.17,10.53,1.74,39.15-.58,49.76-3.95,18.05-32.36,20.87-38.98,4.2-5.7-14.35-1.16-37.01-2.61-52.51.65-4.99,3.25-6.41,8.12-6.04v-1.92Z"/>
  <path class="cls-1" d="M248.54,5.84h-27.36v1.92c3.04-.35,8.04.49,8.61,4.11l-.2,61.67c-1.24,3.84-5.04,3.46-8.41,3.35v2.4h53.04l.72-1.2,1.44-18.96-2.8.08c-1.79,5.28-3.34,12.69-8.86,15.37-.53.26-4.64,1.82-4.9,1.82h-20.4V11.36c0-.19,1.74-2.24,2.26-2.54,1.92-1.09,4.7-1.15,6.86-1.07v-1.92Z"/>
  <path class="cls-1" d="M308.54,5.84h-26.88v1.92c4.52-.42,8.64.97,9.15,5.97,1.86,18.17-1.43,39.57-.06,58.08-.96,5.14-4.15,5.03-8.64,5.28l-.45,2.19h26.88v-2.4c-2.83.08-6.14.24-7.9-2.41-.61-3.74-1.08-7.94-1.24-11.72-.58-13.59-.33-29.22.5-42.75.44-7.17-1.4-12.96,8.65-12.24v-1.92Z"/>
  <path class="cls-1" d="M423.26,5.84h-25.44v1.92c5.98-.36,7.77,1.13,8.18,6.94,1.02,14.41-2.82,39.95,2.36,52.36,6.95,16.68,37.49,18.17,48.02,4.3,8.61-11.34,4.37-37.6,5.26-51.86.42-6.66,1.65-12.08,9.62-11.74v-1.92h-22.56v1.92c7.74-.12,8.71,3.52,9.14,10.3.62,9.85.48,23.25,0,33.16-.6,12.38-3.97,24.59-18.48,25.68-17.09,1.28-23.32-6.41-24.28-22.8-.79-13.46.59-27.71.06-41.26.61-4.5,4.13-5.3,8.12-5.08v-1.92Z"/>
  <path class="cls-1" d="M528.86,5.84h-51.36v1.92c8.94-.56,7.32,4.51,7.68,10.8.86,14.76.97,30.4.37,45.12-.14,3.42-.5,6.91-.59,10.35-1.45,3.25-4.36,3.01-7.47,2.85v2.4h52.56c1.81-2.25.93-5.36,1.21-7.91.18-1.68,1.87-11.81,1.43-12.25l-2.86.03c-.64,5.18-3.01,12.73-7.84,15.44-.54.3-4.64,1.82-4.9,1.82h-22.08l-.72-.72v-32.64l.72-.72h14.4c1.98,1.31,4.2.62,6.24,1.92,2.62,1.67,3.34,5.74,3.62,8.62l2.86.02v-23.28c-3.52-2.61-2.85,2.07-3.51,4.17-.82,2.65-3.96,5.67-6.81,5.67h-17.52V8.72h21.84c.47,0,3.84,1.38,4.5,1.74,4.84,2.61,5.94,8.22,7.31,13.08l2.35.06-1.44-17.76Z"/>
  <path class="cls-1" d="M391.58,81.2l-7.31,1.84c-3.29-1.04-6.55-2.69-8.81-5.39-.39-.45-1.74-2-1.64-2.43,18.61-13.2,20.1-49.15,2.63-63.61-11.42-9.43-31.47-10.21-43.19-.97-19.08,15.04-18.3,53.05,3.45,65.67,9.42,5.46,19.71,5.1,30.05,2.95,1.32,1.68,2.76,3.47,4.41,4.83,4.92,4.07,9.91,3.79,15.72,1.78,1.04-.36,4.91-2.08,5.08-3.06l-.39-1.61ZM341.43,73.99c-1.75-1.5-2.71-2.38-2.05-4.91.11-.42,2.09-3.68,2.44-4.04.75-.74,4.29-2.45,5.34-2.58,7.33-.92,13.69,7.71,17.04,13.22-6.35,3.53-17.09,3.18-22.77-1.69ZM370.04,71.05c-6.57-11.64-23.16-19.59-31.93-5.64-.92,1.91-.52,5.51-2.78,1.72-7.4-12.46-7.36-34.1-1.21-46.99,9.16-19.22,32.31-17.6,40.55,1.41,5.35,12.36,5.25,31.14.12,43.58-.5,1.2-2.91,6.97-4.75,5.92Z"/>
  <path class="cls-1" d="M27.64,4.54C-6.82,8.63-9.78,68.88,22.86,79.12c26.29,8.24,46.05-10.55,46.06-36.56.01-25.39-15.46-41.08-41.28-38.02ZM39.47,77.81C8.14,84.25,4.16,34.56,16.79,15.77c7.32-10.91,23.61-12.41,32.86-3.04,14.02,14.2,13.12,60.3-10.18,65.08Z"/>
  <path class="cls-1" d="M528.86,5.84l1.44,17.76-2.35-.06c-1.37-4.87-2.48-10.47-7.31-13.08-.66-.36-4.04-1.74-4.5-1.74h-21.84v30.72h17.52c2.86,0,5.99-3.02,6.81-5.67.66-2.11-.01-6.79,3.51-4.17v23.28l-2.86-.02c-.29-2.88-1-6.94-3.62-8.62-2.04-1.3-4.26-.61-6.24-1.92h-14.4l-.72.72v32.64l.72.72h22.08c.26,0,4.36-1.52,4.9-1.82,4.84-2.71,7.2-10.25,7.84-15.44l2.86-.03c.44.44-1.25,10.57-1.43,12.25-.28,2.56.6,5.66-1.21,7.91h-52.56v-2.4c3.1.16,6.01.39,7.47-2.85.09-3.43.46-6.93.59-10.35.59-14.72.49-30.36-.37-45.12-.37-6.29,1.26-11.36-7.69-10.8v-1.92h51.36Z"/>
  <path class="cls-1" d="M122.77,7.53c-1.18-.43-5.5-1.69-6.47-1.69h-37.2v1.92c2.9-.27,5.98.1,7.41,2.91l.25,62.59c-.86,4.68-5.74,2.87-7.19,3.85-.99.66-.23,2.17.25,2.17h24.72v-2.4c-2.65.15-6.97.3-7.95-2.85-.11-.35-.69-3.45-.69-3.63v-22.8c15.27-.7,37.23,1.17,38.42-19.42.54-9.34-2.23-17.3-11.55-20.65ZM117.66,41.76c-4.44,2.4-15.1,3.57-20.1,2.98-.7-.08-1.24-.05-1.66-.74V8.72c.55-.06,1.02-.31,1.58-.31,6.54-.05,16.06-.42,21.43,3.46,8.15,5.9,7.92,24.91-1.25,29.89Z"/>
  <path class="cls-1" d="M423.26,5.84v1.92c-3.99-.22-7.51.58-8.12,5.08.53,13.54-.85,27.8-.06,41.26.96,16.39,7.19,24.08,24.28,22.8,14.51-1.09,17.88-13.3,18.48-25.68.48-9.92.62-23.31,0-33.16-.43-6.78-1.4-10.42-9.14-10.3v-1.92h22.56v1.92c-7.97-.34-9.2,5.08-9.62,11.74-.89,14.26,3.35,40.52-5.26,51.86-10.53,13.87-41.07,12.39-48.02-4.3-5.17-12.42-1.34-37.95-2.36-52.36-.41-5.81-2.2-7.3-8.18-6.94v-1.92h25.44Z"/>
  <path class="cls-1" d="M166.46,5.84v1.92c-4.87-.36-7.47,1.06-8.12,6.04,1.45,15.5-3.09,38.16,2.61,52.51,6.62,16.67,35.03,13.85,38.98-4.2,2.32-10.61,2.75-39.23.58-49.76-.71-3.46-5.44-5.06-8.61-4.6v-1.92h22.32l.26,1.7c-8.51-.03-9.2,6.46-9.64,13.4-.85,13.42,2.85,37.03-3.61,48.23-9.02,15.64-39.56,15.34-48.4-.03-6.13-10.65-2.18-39.94-3.15-53.49-.4-5.61-2-8.37-8.18-7.9v-1.92h24.96Z"/>
  <path class="cls-1" d="M248.54,5.84v1.92c-2.16-.08-4.93-.02-6.86,1.07-.53.3-2.26,2.34-2.26,2.54v65.04h20.4c.26,0,4.37-1.56,4.9-1.82,5.53-2.68,7.07-10.1,8.86-15.37l2.8-.08-1.44,18.96-.72,1.2h-53.04v-2.4c3.37.11,7.17.5,8.41-3.35l.2-61.67c-.57-3.62-5.57-4.46-8.61-4.11v-1.92h27.36Z"/>
  <path class="cls-1" d="M308.54,5.84v1.92c-10.05-.72-8.21,5.07-8.64,12.24-.82,13.53-1.07,29.15-.5,42.75.16,3.78.63,7.98,1.24,11.72,1.76,2.65,5.08,2.49,7.91,2.41v2.4h-26.88l.45-2.19c4.48-.25,7.68-.14,8.64-5.28-1.37-18.51,1.92-39.92.06-58.08-.51-5-4.63-6.39-9.15-5.97v-1.92h26.88Z"/>
</svg>