<?xml version="1.0" encoding="UTF-8"?>
<svg id="Layer_1" data-name="Layer 1" xmlns="http://www.w3.org/2000/svg" viewBox="0 0 356.68 133.6">
  <defs>
    <style>
      .cls-1 {
        fill: #2c3e50;
      }

      .cls-2 {
        fill: #d4af37;
      }
    </style>
  </defs>
  <g>
    <polygon class="cls-2" points="45.7 57.62 24.34 44.94 0 59.74 0 119.06 21.45 131.91 21.45 71.3 45.7 57.62"/>
    <polygon class="cls-1" points="24.49 12.45 45.23 0 97.38 30.19 97.19 88.43 48.43 115.53 48.43 90.89 75.36 75.06 75.36 42.26 24.49 12.45"/>
  </g>
  <g>
    <path class="cls-1" d="M117.51,87.74v-44.1h8.93l.35,6.99-1.76-.53c.27-1.29.94-2.47,2-3.52,1.06-1.06,2.4-1.91,4.02-2.55,1.62-.65,3.34-.97,5.14-.97,2.66,0,5.03.7,7.11,2.08,2.07,1.39,3.71,3.29,4.9,5.7,1.19,2.41,1.79,5.2,1.79,8.37s-.6,5.91-1.79,8.34c-1.19,2.43-2.84,4.34-4.93,5.73-2.09,1.39-4.49,2.08-7.19,2.08-1.76,0-3.45-.33-5.05-1-1.61-.67-2.96-1.57-4.05-2.7-1.1-1.13-1.82-2.37-2.17-3.7l2.17-.82v20.61h-9.45ZM133.78,67.43c1.41,0,2.64-.34,3.7-1.03,1.06-.68,1.88-1.63,2.47-2.85.59-1.21.88-2.66.88-4.35s-.29-3.08-.88-4.32c-.59-1.23-1.4-2.19-2.44-2.88-1.04-.68-2.28-1.03-3.73-1.03s-2.7.33-3.76,1c-1.06.67-1.88,1.62-2.47,2.88-.59,1.25-.88,2.7-.88,4.35s.29,3.13.88,4.35c.59,1.21,1.41,2.16,2.47,2.85,1.06.69,2.31,1.03,3.76,1.03Z"/>
    <path class="cls-1" d="M156.21,74.82v-31.18h8.93l.41,10.16-1.76-1.94c.47-1.68,1.24-3.19,2.32-4.52,1.08-1.33,2.34-2.39,3.79-3.17,1.45-.78,2.99-1.17,4.64-1.17.71,0,1.36.06,1.97.18.61.12,1.16.26,1.67.41l-2.58,10.39c-.43-.27-1.01-.5-1.73-.68s-1.48-.26-2.26-.26c-.86,0-1.66.15-2.41.44-.74.29-1.37.72-1.88,1.26-.51.55-.91,1.19-1.2,1.94-.29.74-.44,1.59-.44,2.52v15.62h-9.45Z"/>
    <path class="cls-1" d="M196.31,75.41c-3.25,0-6.14-.7-8.66-2.11-2.53-1.41-4.52-3.33-5.99-5.75-1.47-2.43-2.2-5.21-2.2-8.34s.73-5.91,2.2-8.34c1.47-2.43,3.46-4.35,5.99-5.75,2.52-1.41,5.41-2.11,8.66-2.11s6.14.7,8.66,2.11c2.53,1.41,4.51,3.33,5.96,5.75,1.45,2.43,2.17,5.21,2.17,8.34s-.73,5.91-2.17,8.34c-1.45,2.43-3.43,4.35-5.96,5.75-2.53,1.41-5.41,2.11-8.66,2.11ZM196.31,67.31c1.41,0,2.66-.35,3.76-1.06,1.1-.7,1.96-1.66,2.58-2.88.63-1.21.92-2.6.88-4.17.04-1.57-.26-2.97-.88-4.2-.63-1.23-1.49-2.2-2.58-2.91-1.1-.7-2.35-1.06-3.76-1.06s-2.67.35-3.79,1.06c-1.12.7-1.99,1.67-2.61,2.91-.63,1.23-.92,2.63-.88,4.2-.04,1.57.25,2.96.88,4.17.63,1.21,1.5,2.17,2.61,2.88,1.12.7,2.38,1.06,3.79,1.06Z"/>
    <path class="cls-1" d="M216.45,87.16l-3.58-7.28c1.8,0,3.21-.23,4.23-.7,1.02-.47,1.74-1.24,2.17-2.32.43-1.08.65-2.55.65-4.43v-28.77h9.4v31c0,2.86-.49,5.21-1.47,7.05-.98,1.84-2.43,3.21-4.35,4.11-1.92.9-4.27,1.35-7.05,1.35ZM224.79,37.48c-1.76,0-3.14-.42-4.14-1.26-1-.84-1.5-2.05-1.5-3.61,0-1.41.51-2.56,1.53-3.46,1.02-.9,2.39-1.35,4.11-1.35s3.13.42,4.11,1.26c.98.84,1.47,2.03,1.47,3.55s-.5,2.62-1.5,3.52c-1,.9-2.36,1.35-4.08,1.35Z"/>
    <path class="cls-1" d="M252.69,75.41c-3.45,0-6.44-.69-8.98-2.08-2.54-1.39-4.52-3.29-5.93-5.7-1.41-2.41-2.11-5.16-2.11-8.25,0-2.39.39-4.58,1.17-6.58.78-2,1.88-3.73,3.29-5.2,1.41-1.47,3.08-2.6,5.02-3.41,1.94-.8,4.06-1.2,6.37-1.2s4.2.39,6.02,1.17c1.82.78,3.4,1.88,4.73,3.29,1.33,1.41,2.35,3.07,3.05,4.99.7,1.92,1.02,4.01.94,6.28l-.06,2.52h-24.84l-1.35-5.28h18.56l-1,1.12v-1.17c-.08-.98-.38-1.85-.91-2.61s-1.22-1.36-2.09-1.79c-.86-.43-1.84-.65-2.94-.65-1.53,0-2.83.3-3.91.91-1.08.61-1.89,1.49-2.44,2.64-.55,1.15-.82,2.57-.82,4.26s.36,3.22,1.09,4.49c.72,1.27,1.78,2.26,3.17,2.97,1.39.7,3.04,1.06,4.96,1.06,1.33,0,2.52-.2,3.55-.59,1.04-.39,2.16-1.06,3.38-2l4.4,6.22c-1.21,1.06-2.51,1.92-3.88,2.58-1.37.67-2.77,1.17-4.2,1.5-1.43.33-2.85.5-4.26.5Z"/>
    <path class="cls-1" d="M272.24,74.82V31.37h9.4v43.45h-9.4ZM281.28,65.66l-3.47-7.05,14.56-14.97h12.39l-23.49,22.02ZM293.38,74.82l-10.98-14.21,6.64-5.17,15.44,19.38h-11.1Z"/>
    <path class="cls-1" d="M306.06,51.86v-8.22h20.96v8.22h-20.96ZM311.58,74.82v-39.05h9.4v39.05h-9.4Z"/>
    <path class="cls-1" d="M344.06,75.41c-3.05,0-5.75-.49-8.07-1.47-2.33-.98-4.18-2.29-5.55-3.93l5.7-4.93c1.21,1.21,2.58,2.1,4.11,2.67,1.53.57,2.97.85,4.34.85.55,0,1.04-.06,1.47-.18.43-.12.79-.28,1.09-.5.29-.21.52-.47.68-.76.16-.29.23-.64.23-1.03,0-.78-.35-1.39-1.06-1.82-.35-.2-.94-.43-1.76-.7-.82-.27-1.88-.59-3.17-.94-1.84-.47-3.44-1.03-4.79-1.67s-2.46-1.4-3.32-2.26c-.78-.82-1.39-1.73-1.82-2.73-.43-1-.65-2.12-.65-3.38,0-1.45.34-2.76,1.03-3.93.68-1.17,1.6-2.19,2.76-3.05,1.15-.86,2.49-1.52,3.99-1.97,1.51-.45,3.06-.68,4.67-.68,1.72,0,3.37.2,4.93.59,1.57.39,3.02.94,4.37,1.64,1.35.7,2.55,1.55,3.61,2.53l-4.93,5.52c-.7-.67-1.5-1.26-2.38-1.79-.88-.53-1.79-.95-2.73-1.26-.94-.31-1.8-.47-2.58-.47-.59,0-1.11.05-1.56.15-.45.1-.83.25-1.14.47-.31.22-.55.47-.7.76-.16.29-.23.64-.23,1.03s.11.76.32,1.12c.21.35.52.65.91.88.39.23,1.02.5,1.88.79.86.29,2.03.66,3.52,1.09,1.84.51,3.43,1.08,4.76,1.7,1.33.63,2.39,1.37,3.17,2.23.63.67,1.1,1.44,1.41,2.32.31.88.47,1.83.47,2.85,0,2-.56,3.77-1.67,5.31-1.12,1.55-2.65,2.76-4.61,3.64-1.96.88-4.19,1.32-6.69,1.32Z"/>
  </g>
</svg>