<svg id="Layer_1" data-name="Layer 1" xmlns="http://www.w3.org/2000/svg" viewBox="0 0 59.04 21.53"><defs><style>.cls-1{fill:#a8a9b8;}.cls-2{fill:#fff;}</style></defs><title>Untitled-1</title><polygon class="cls-1" points="8.22 9.41 4.73 7.34 0.76 9.75 0.76 19.44 4.26 21.54 4.26 11.64 8.22 9.41"/><polygon class="cls-2" points="4.75 2.03 8.14 0 16.65 4.93 16.62 14.44 8.66 18.86 8.66 14.84 13.06 12.25 13.06 6.9 4.75 2.03"/><path class="cls-2" d="M19.94,14.32V7.12H21.4l.06,1.15-.29-.09a1.16,1.16,0,0,1,.32-.58,2,2,0,0,1,.66-.41A2.2,2.2,0,0,1,23,7a2,2,0,0,1,1.16.34,2.34,2.34,0,0,1,.8.93,3.1,3.1,0,0,1,.29,1.37A3.12,3.12,0,0,1,25,11a2.28,2.28,0,0,1-.8.93A2.09,2.09,0,0,1,23,12.3a2.07,2.07,0,0,1-.82-.16,1.86,1.86,0,0,1-.66-.44,1.43,1.43,0,0,1-.36-.61l.36-.13v3.37H19.94ZM22.6,11a1.07,1.07,0,0,0,1-.64A1.73,1.73,0,0,0,23.6,9a1.07,1.07,0,0,0-.39-.47,1.12,1.12,0,0,0-.61-.17,1,1,0,0,0-1,.63,1.64,1.64,0,0,0-.14.71,1.55,1.55,0,0,0,.14.71,1.07,1.07,0,0,0,1,.64Z"/><path class="cls-2" d="M26.26,12.21V7.12h1.46l.06,1.66-.28-.31a2,2,0,0,1,.37-.74,2.18,2.18,0,0,1,.62-.52A1.56,1.56,0,0,1,29.25,7a1.58,1.58,0,0,1,.32,0l.28.07-.43,1.69a1.09,1.09,0,0,0-.28-.11,1.5,1.5,0,0,0-.37,0,1,1,0,0,0-.39.07,1,1,0,0,0-.31.21.89.89,0,0,0-.19.31,1.07,1.07,0,0,0-.08.41v2.55Z"/><path class="cls-2" d="M32.8,12.31A2.83,2.83,0,0,1,31.39,12a2.68,2.68,0,0,1-1-.94,2.58,2.58,0,0,1-.36-1.36,2.62,2.62,0,0,1,.36-1.37,2.58,2.58,0,0,1,1-.93,3,3,0,0,1,2.83,0,2.54,2.54,0,0,1,1.33,2.3A2.58,2.58,0,0,1,35.19,11a2.65,2.65,0,0,1-1,.94A2.84,2.84,0,0,1,32.8,12.31Zm0-1.32a1.15,1.15,0,0,0,.62-.17,1.27,1.27,0,0,0,.42-.47A1.4,1.4,0,0,0,34,9.66,1.38,1.38,0,0,0,33.84,9a1.22,1.22,0,0,0-.42-.48,1.2,1.2,0,0,0-1.23,0,1.17,1.17,0,0,0-.43.48,1.38,1.38,0,0,0-.14.68,1.4,1.4,0,0,0,.14.69,1.21,1.21,0,0,0,.43.47A1.14,1.14,0,0,0,32.8,11Z"/><path class="cls-2" d="M36.09,14.23,35.51,13a1.84,1.84,0,0,0,.69-.11.69.69,0,0,0,.35-.38,2,2,0,0,0,.11-.73V7.13h1.53v5.06A2.42,2.42,0,0,1,38,13.34a1.49,1.49,0,0,1-.71.67,2.62,2.62,0,0,1-1.15.22Zm1.36-8.11a1,1,0,0,1-.67-.21.73.73,0,0,1-.25-.59.73.73,0,0,1,.25-.56,1,1,0,0,1,.67-.22,1.06,1.06,0,0,1,.68.2.74.74,0,0,1,.24.58.75.75,0,0,1-.25.58A.93.93,0,0,1,37.45,6.12Z"/><path class="cls-2" d="M42,12.31A3,3,0,0,1,40.54,12a2.53,2.53,0,0,1-1.31-2.28,2.87,2.87,0,0,1,.19-1.07A2.57,2.57,0,0,1,40,7.77a2.49,2.49,0,0,1,.82-.56,2.68,2.68,0,0,1,1-.19,2.35,2.35,0,0,1,1,.19,2.35,2.35,0,0,1,1.27,1.35,2.48,2.48,0,0,1,.15,1V10H40.16l-.22-.86h3l-.16.18V9.13a1.05,1.05,0,0,0-.15-.43,1,1,0,0,0-.34-.29,1.06,1.06,0,0,0-.48-.11,1.26,1.26,0,0,0-.64.15.93.93,0,0,0-.4.43,1.62,1.62,0,0,0-.13.7,1.46,1.46,0,0,0,.17.73,1.23,1.23,0,0,0,.52.49,1.86,1.86,0,0,0,.81.17,1.5,1.5,0,0,0,.58-.1,2.15,2.15,0,0,0,.55-.32l.72,1a2.77,2.77,0,0,1-.63.42,3.83,3.83,0,0,1-.69.25,3.25,3.25,0,0,1-.69.08Z"/><path class="cls-2" d="M45.2,12.21V5.12h1.54v7.09Zm1.48-1.49-.57-1.15,2.38-2.45h2l-3.84,3.6Zm2,1.49L46.86,9.89l1.08-.84,2.52,3.16Z"/><path class="cls-2" d="M50.72,8.47V7.12h3.42V8.47Zm.9,3.74V5.84h1.54v6.37Z"/><path class="cls-2" d="M56.93,12.31a3.38,3.38,0,0,1-1.32-.24,2.37,2.37,0,0,1-.91-.64l.93-.81a1.82,1.82,0,0,0,.67.44,2.13,2.13,0,0,0,.71.14.88.88,0,0,0,.24,0,.75.75,0,0,0,.18-.08.33.33,0,0,0,.11-.13.27.27,0,0,0,0-.16.34.34,0,0,0-.17-.3l-.29-.12-.52-.15a5,5,0,0,1-.78-.27,2,2,0,0,1-.54-.37,1.37,1.37,0,0,1-.3-.45,1.35,1.35,0,0,1-.11-.55A1.28,1.28,0,0,1,55,8a1.64,1.64,0,0,1,.45-.5,2.08,2.08,0,0,1,.65-.32A2.81,2.81,0,0,1,56.91,7a3,3,0,0,1,.8.1,3.15,3.15,0,0,1,.71.26A2.85,2.85,0,0,1,59,7.8l-.8.9a2.19,2.19,0,0,0-.39-.29,1.85,1.85,0,0,0-.45-.21A1.35,1.35,0,0,0,57,8.12a1,1,0,0,0-.25,0,.54.54,0,0,0-.19.07.33.33,0,0,0-.11.13.31.31,0,0,0,0,.17.41.41,0,0,0,0,.18.4.4,0,0,0,.15.14,1.37,1.37,0,0,0,.31.13l.57.18a5,5,0,0,1,.78.28,1.6,1.6,0,0,1,.52.36,1.14,1.14,0,0,1,.23.38,1.41,1.41,0,0,1,.07.47,1.44,1.44,0,0,1-.27.86,1.8,1.8,0,0,1-.75.6,2.68,2.68,0,0,1-1.09.21Z"/></svg>