<svg id="Layer_1" data-name="Layer 1" xmlns="http://www.w3.org/2000/svg" viewBox="0 0 58.29 21.53"><defs><style>.cls-1{fill:#a8a9b8;}.cls-2{fill:#0b0b0b;}</style></defs><title>Untitled-1</title><polygon class="cls-1" points="7.46 9.41 3.97 7.34 0 9.75 0 19.44 3.5 21.54 3.5 11.64 7.46 9.41"/><polygon class="cls-2" points="4 2.03 7.38 0 15.9 4.93 15.87 14.44 7.91 18.86 7.91 14.84 12.3 12.25 12.3 6.9 4 2.03"/><path class="cls-2" d="M19.18,14.32V7.12h1.46l.06,1.15-.29-.09a1.27,1.27,0,0,1,.33-.58,1.85,1.85,0,0,1,.65-.41A2.2,2.2,0,0,1,22.23,7a2,2,0,0,1,1.16.34,2.34,2.34,0,0,1,.8.93,3,3,0,0,1,.3,1.37,3,3,0,0,1-.3,1.36,2.28,2.28,0,0,1-.8.93,2,2,0,0,1-1.17.34,2.12,2.12,0,0,1-.83-.16,2.06,2.06,0,0,1-.66-.44,1.31,1.31,0,0,1-.35-.61l.35-.13v3.37H19.18ZM21.84,11a1.08,1.08,0,0,0,.6-.17,1.11,1.11,0,0,0,.41-.47A1.66,1.66,0,0,0,23,9.66a1.68,1.68,0,0,0-.14-.7,1.16,1.16,0,0,0-.4-.47,1.21,1.21,0,0,0-1.22,0,1.11,1.11,0,0,0-.41.47,1.8,1.8,0,0,0-.14.71,1.7,1.7,0,0,0,.14.71,1.11,1.11,0,0,0,.41.47A1.09,1.09,0,0,0,21.84,11Z"/><path class="cls-2" d="M25.5,12.21V7.12H27L27,8.78l-.29-.31a2,2,0,0,1,.38-.74,1.94,1.94,0,0,1,.62-.52A1.52,1.52,0,0,1,28.49,7a1.69,1.69,0,0,1,.33,0l.27.07-.42,1.69a1.26,1.26,0,0,0-.28-.11,1.55,1.55,0,0,0-.37,0,1.09,1.09,0,0,0-.4.07.81.81,0,0,0-.3.21.92.92,0,0,0-.2.31,1.07,1.07,0,0,0-.07.41v2.55H25.5Z"/><path class="cls-2" d="M32.05,12.31A2.9,2.9,0,0,1,30.63,12a2.65,2.65,0,0,1-1-.94,2.58,2.58,0,0,1-.36-1.36,2.62,2.62,0,0,1,.36-1.37,2.55,2.55,0,0,1,1-.93A2.9,2.9,0,0,1,32.05,7a2.83,2.83,0,0,1,1.41.35,2.58,2.58,0,0,1,1,.93,2.71,2.71,0,0,1,.35,1.37A2.67,2.67,0,0,1,34.44,11a2.61,2.61,0,0,1-1,.94A2.83,2.83,0,0,1,32.05,12.31Zm0-1.32a1.14,1.14,0,0,0,.61-.17,1.27,1.27,0,0,0,.42-.47,1.4,1.4,0,0,0,.15-.69A1.51,1.51,0,0,0,33.08,9a1.22,1.22,0,0,0-.42-.48,1.14,1.14,0,0,0-.61-.17,1.18,1.18,0,0,0-.62.17A1.25,1.25,0,0,0,31,9a1.38,1.38,0,0,0-.14.68,1.4,1.4,0,0,0,.14.69,1.39,1.39,0,0,0,.43.47A1.18,1.18,0,0,0,32.05,11Z"/><path class="cls-2" d="M35.34,14.23,34.75,13a1.77,1.77,0,0,0,.69-.11.7.7,0,0,0,.36-.38,2.07,2.07,0,0,0,.1-.73V7.13h1.54v5.06a2.42,2.42,0,0,1-.24,1.15,1.54,1.54,0,0,1-.71.67,2.68,2.68,0,0,1-1.15.22ZM36.7,6.12A1,1,0,0,1,36,5.91a.72.72,0,0,1-.24-.59A.7.7,0,0,1,36,4.76a1,1,0,0,1,.67-.22,1,1,0,0,1,.67.2.74.74,0,0,1,.24.58.72.72,0,0,1-.25.58A.92.92,0,0,1,36.7,6.12Z"/><path class="cls-2" d="M41.25,12.31A3,3,0,0,1,39.79,12a2.48,2.48,0,0,1-1-.93,2.61,2.61,0,0,1-.35-1.35,2.87,2.87,0,0,1,.2-1.07,2.4,2.4,0,0,1,.53-.85A2.6,2.6,0,0,1,40,7.21a2.71,2.71,0,0,1,1-.19,2.32,2.32,0,0,1,1,.19,2.27,2.27,0,0,1,1.27,1.35,2.65,2.65,0,0,1,.16,1V10H39.4l-.22-.86h3l-.16.18V9.13a.83.83,0,0,0-.15-.43,1,1,0,0,0-.34-.29,1.06,1.06,0,0,0-.48-.11,1.29,1.29,0,0,0-.64.15,1,1,0,0,0-.4.43,1.62,1.62,0,0,0-.13.7,1.46,1.46,0,0,0,.18.73,1.21,1.21,0,0,0,.51.49,1.86,1.86,0,0,0,.81.17,1.47,1.47,0,0,0,.58-.1,2.19,2.19,0,0,0,.56-.32l.71,1a2.57,2.57,0,0,1-.63.42,3.35,3.35,0,0,1-.69.25,3.25,3.25,0,0,1-.69.08Z"/><path class="cls-2" d="M44.44,12.21V5.12H46v7.09Zm1.48-1.49-.57-1.15,2.38-2.45h2l-3.83,3.6Zm2,1.49L46.1,9.89l1.09-.84,2.52,3.16Z"/><path class="cls-2" d="M50,8.47V7.12h3.42V8.47Zm.9,3.74V5.84H52.4v6.37Z"/><path class="cls-2" d="M56.17,12.31a3.38,3.38,0,0,1-1.32-.24,2.26,2.26,0,0,1-.9-.64l.93-.81a1.74,1.74,0,0,0,.67.44,2.08,2.08,0,0,0,.71.14.88.88,0,0,0,.24,0,.67.67,0,0,0,.17-.08.33.33,0,0,0,.11-.13.27.27,0,0,0,0-.16.32.32,0,0,0-.17-.3l-.29-.12-.52-.15a5,5,0,0,1-.78-.27,2,2,0,0,1-.54-.37,1.37,1.37,0,0,1-.3-.45,1.35,1.35,0,0,1-.1-.55A1.18,1.18,0,0,1,54.29,8a1.64,1.64,0,0,1,.45-.5,1.88,1.88,0,0,1,.65-.32A2.74,2.74,0,0,1,56.15,7a3,3,0,0,1,.8.1,3.23,3.23,0,0,1,.72.26,3.14,3.14,0,0,1,.59.42l-.81.9a1.65,1.65,0,0,0-.39-.29,2,2,0,0,0-.44-.21,1.46,1.46,0,0,0-.42-.08,1,1,0,0,0-.26,0,.48.48,0,0,0-.18.07.49.49,0,0,0-.12.13.43.43,0,0,0,0,.17.32.32,0,0,0,.06.18.29.29,0,0,0,.15.14,1.09,1.09,0,0,0,.3.13l.58.18a4.5,4.5,0,0,1,.77.28,1.6,1.6,0,0,1,.52.36,1.14,1.14,0,0,1,.23.38,1.4,1.4,0,0,1,.08.47,1.44,1.44,0,0,1-.27.86,1.9,1.9,0,0,1-.76.6,2.68,2.68,0,0,1-1.09.21Z"/></svg>